<?xml version="1.0" encoding="UTF-8" standalone="no"?>
<!DOCTYPE svg PUBLIC "-//W3C//DTD SVG 1.1//EN" "http://www.w3.org/Graphics/SVG/1.1/DTD/svg11.dtd">
<svg version="1.1" xmlns="http://www.w3.org/2000/svg" xmlns:xlink="http://www.w3.org/1999/xlink" preserveAspectRatio="xMidYMid meet" viewBox="0 0 306 306" width="306" height="306"><defs><path d="M306 153C306 237.44 237.44 306 153 306C68.56 306 0 237.44 0 153C0 68.56 68.56 0 153 0C237.44 0 306 68.56 306 153Z" id="c26MQEpGRt"></path><path d="M97.67 62.51C94.87 69.71 94.73 71.84 95.4 100.78C95.8 128.11 96.2 132.38 98.87 139.44C103 150.78 115.4 175.98 119.53 181.31C123.53 186.64 123.8 188.11 121.13 188.11C117.4 188.11 97 195.04 85.67 200.24C79.27 203.04 64.6 210.51 53 216.78C51.58 217.53 44.47 221.31 31.67 228.11L153 228.11L274.33 228.11C265.93 223.63 261.27 221.14 260.33 220.64C222.33 200.51 206.73 193.71 183.27 187.31C182.2 187.04 183.27 184.64 186.33 180.38C191.8 172.64 203 149.58 207 137.71C209.4 130.24 209.8 125.71 210.07 98.38C210.08 96.31 210.17 86 210.33 67.44C207.61 61.6 206.1 58.36 205.8 57.71C200.2 45.71 190.47 36.38 179.27 31.98C168.07 27.71 141.8 27.04 130.2 30.78C113.93 36.11 103.8 45.84 97.67 62.51Z" id="e2r18Ya687"></path></defs><g><g><g><use xlink:href="#c26MQEpGRt" opacity="1" fill="#dedede" fill-opacity="1"></use></g><g><use xlink:href="#e2r18Ya687" opacity="1" fill="#969696" fill-opacity="1"></use><g><use xlink:href="#e2r18Ya687" opacity="1" fill-opacity="0" stroke="#000000" stroke-width="1" stroke-opacity="0"></use></g></g></g></g></svg>